<?xml version="1.0" encoding="UTF-8" standalone="no"?>
<svg width="1200" height="400" viewBox="0 0 1200 400" xmlns="http://www.w3.org/2000/svg">
  <defs>
    <linearGradient id="bg-gradient" x1="0%" y1="0%" x2="100%" y2="100%">
      <stop offset="0%" stop-color="#f8fafc" />
      <stop offset="100%" stop-color="#e2e8f0" />
    </linearGradient>
  </defs>
  
  <!-- Background -->
  <rect width="1200" height="400" fill="url(#bg-gradient)" />
  
  <!-- Simple Age Distribution Visual Elements -->
  
  <!-- Child shape -->
  <circle cx="300" cy="150" r="40" fill="#38bdf8" opacity="0.7" />
  
  <!-- Young adult shape -->
  <circle cx="450" cy="150" r="55" fill="#818cf8" opacity="0.7" />
  
  <!-- Adult shape -->
  <circle cx="600" cy="150" r="70" fill="#a78bfa" opacity="0.7" />
  
  <!-- Middle age shape -->
  <circle cx="750" cy="150" r="55" fill="#e879f9" opacity="0.7" />
  
  <!-- Elderly shape -->
  <circle cx="900" cy="150" r="40" fill="#fb7185" opacity="0.7" />
  
  <!-- Connection lines -->
  <path d="M300,150 Q375,100 450,150 Q525,200 600,150 Q675,100 750,150 Q825,200 900,150" 
        stroke="#94a3b8" stroke-width="3" fill="none" />
  
  <!-- Simple person silhouettes -->
  <g transform="translate(300, 250)">
    <circle cx="0" cy="-15" r="15" fill="#38bdf8" />
    <path d="M-10,0 L10,0 L10,30 L-10,30 Z" fill="#38bdf8" />
  </g>
  
  <g transform="translate(450, 250)">
    <circle cx="0" cy="-20" r="20" fill="#818cf8" />
    <path d="M-15,0 L15,0 L15,40 L-15,40 Z" fill="#818cf8" />
  </g>
  
  <g transform="translate(600, 250)">
    <circle cx="0" cy="-25" r="25" fill="#a78bfa" />
    <path d="M-20,0 L20,0 L20,50 L-20,50 Z" fill="#a78bfa" />
  </g>
  
  <g transform="translate(750, 250)">
    <circle cx="0" cy="-20" r="20" fill="#e879f9" />
    <path d="M-15,0 L15,0 L15,40 L-15,40 Z" fill="#e879f9" />
  </g>
  
  <g transform="translate(900, 250)">
    <circle cx="0" cy="-15" r="15" fill="#fb7185" />
    <path d="M-10,0 L10,0 L10,30 L-10,30 Z" fill="#fb7185" />
  </g>
  
  <!-- Decorative elements -->
  <circle cx="200" cy="100" r="80" fill="#0ea5e9" opacity="0.05" />
  <circle cx="1000" cy="300" r="120" fill="#8b5cf6" opacity="0.05" />
</svg>
