<?xml version="1.0" encoding="UTF-8" standalone="no"?>
<svg width="1200" height="400" viewBox="0 0 1200 400" xmlns="http://www.w3.org/2000/svg">
  <defs>
    <linearGradient id="bg-gradient" x1="0%" y1="0%" x2="100%" y2="100%">
      <stop offset="0%" stop-color="#f8fafc" />
      <stop offset="100%" stop-color="#e2e8f0" />
    </linearGradient>
  </defs>
  
  <!-- Background -->
  <rect width="1200" height="400" fill="url(#bg-gradient)" />
  
  <!-- Central agricultural household representation -->
  <g transform="translate(600, 200)">
    <!-- Simple house -->
    <rect x="-70" y="-20" width="140" height="100" fill="#fde68a" opacity="0.7" />
    <!-- Rounded roof instead of triangular -->
    <path d="M-80,-20 Q0,-80 80,-20" fill="#fb923c" opacity="0.7" />
    
    <!-- Door removed -->
    
    <!-- Farming land representation -->
    <g transform="translate(0, 120)">
      <!-- Rows representing crops/farmland -->
      <path d="M-100,0 L100,0" stroke="#15803d" stroke-width="2" opacity="0.5" />
      <path d="M-100,15 L100,15" stroke="#15803d" stroke-width="2" opacity="0.5" />
      <path d="M-100,30 L100,30" stroke="#15803d" stroke-width="2" opacity="0.5" />
      
      <!-- Simple crop plants -->
      <line x1="-80" y1="0" x2="-80" y2="-20" stroke="#16a34a" stroke-width="1.5" />
      <line x1="-40" y1="15" x2="-40" y2="-5" stroke="#16a34a" stroke-width="1.5" />
      <line x1="0" y1="0" x2="0" y2="-20" stroke="#16a34a" stroke-width="1.5" />
      <line x1="40" y1="15" x2="40" y2="-5" stroke="#16a34a" stroke-width="1.5" />
      <line x1="80" y1="0" x2="80" y2="-20" stroke="#16a34a" stroke-width="1.5" />
      
      <!-- Simple leaves/heads on plants -->
      <circle cx="-80" cy="-20" r="5" fill="#16a34a" opacity="0.7" />
      <circle cx="-40" cy="-5" r="5" fill="#16a34a" opacity="0.7" />
      <circle cx="0" cy="-20" r="5" fill="#16a34a" opacity="0.7" />
      <circle cx="40" cy="-5" r="5" fill="#16a34a" opacity="0.7" />
      <circle cx="80" cy="-20" r="5" fill="#16a34a" opacity="0.7" />
    </g>
  </g>
  
  <!-- Simple ground line -->
  <path d="M300,270 Q600,290 900,270" 
        stroke="#92400e" stroke-width="2" fill="none" opacity="0.3" />
  
  <!-- Subtle decorative elements -->
  <circle cx="200" cy="100" r="80" fill="#f59e0b" opacity="0.05" />
  <circle cx="1000" cy="300" r="120" fill="#15803d" opacity="0.05" />
</svg>
