<?xml version="1.0" encoding="UTF-8" standalone="no"?>
<svg width="1200" height="400" viewBox="0 0 1200 400" xmlns="http://www.w3.org/2000/svg">
  <defs>
    <linearGradient id="bg-gradient" x1="0%" y1="0%" x2="100%" y2="100%">
      <stop offset="0%" stop-color="#f8fafc" />
      <stop offset="100%" stop-color="#e2e8f0" />
    </linearGradient>
    
    <linearGradient id="soil-gradient" x1="0%" y1="0%" x2="0%" y2="100%">
      <stop offset="0%" stop-color="#92400e" />
      <stop offset="100%" stop-color="#7c2d12" />
    </linearGradient>
  </defs>
  
  <!-- Background -->
  <rect width="1200" height="400" fill="url(#bg-gradient)" />
  
  <!-- Centered minimalist farming visual -->
  <g transform="translate(600, 200)">
    <!-- Simplified field - more minimal approach -->
    <path d="M-200,30 Q0,10 200,30" 
        stroke="#92400e" stroke-width="2" fill="none" opacity="0.3" />
    
    <!-- Simplified plant 1 -->
    <g transform="translate(-100, -20)">
      <path d="M0,20 L0,0 M-15,5 C-5,-15 5,-15 15,5" stroke="#16a34a" stroke-width="3" fill="none" />
    </g>
    
    <!-- Simplified plant 2 -->
    <g transform="translate(0, -30)">
      <path d="M0,30 L0,0 M-20,10 C-10,-20 10,-20 20,10" stroke="#16a34a" stroke-width="3" fill="none" />
    </g>
    
    <!-- Simplified plant 3 -->
    <g transform="translate(100, -20)">
      <path d="M0,20 L0,0 M-15,5 C-5,-15 5,-15 15,5" stroke="#16a34a" stroke-width="3" fill="none" />
    </g>
  </g>
  
  <!-- Subtle sun element -->
  <g transform="translate(850, 120)">
    <circle cx="0" cy="0" r="30" fill="#fbbf24" opacity="0.7" />
    <path d="M0,-45 L0,-35 M32,-32 L25,-25 M45,0 L35,0 M32,32 L25,25 M0,45 L0,35 M-32,32 L-25,25 M-45,0 L-35,0 M-32,-32 L-25,-25" 
          stroke="#fbbf24" stroke-width="3" />
  </g>
  
  <!-- Subtle decorative elements -->
  <circle cx="200" cy="100" r="80" fill="#16a34a" opacity="0.05" />
  <circle cx="1000" cy="300" r="120" fill="#fbbf24" opacity="0.05" />
</svg>
