<svg width="1200" height="400" viewBox="0 0 1200 400" xmlns="http://www.w3.org/2000/svg">
  <defs>
    <linearGradient id="bg-gradient" x1="0%" y1="0%" x2="100%" y2="100%">
      <stop offset="0%" stop-color="#f8fafc" />
      <stop offset="100%" stop-color="#e2e8f0" />
    </linearGradient>
  </defs>
  
  <!-- Background -->
  <rect width="1200" height="400" fill="url(#bg-gradient)" />
  
  <!-- Simple Home Representation -->
  <g transform="translate(400, 200)">
    <!-- Simple house shape -->
    <path d="M0,0 L-60,40 L-60,100 L60,100 L60,40 Z" fill="#bfdbfe" opacity="0.7" />
  </g>
  
  <!-- Migration Path/Arrow -->
  <path d="M450,200 Q600,150 750,200" stroke="#93c5fd" stroke-width="2" fill="none" opacity="0.7" />
  <polygon points="750,200 735,185 735,215" fill="#93c5fd" opacity="0.7" />
  
  <!-- Destination Location - Simple Pin -->
  <g transform="translate(800, 200)">
    <circle cx="0" cy="0" r="20" fill="#fb923c" opacity="0.7" />
    <path d="M0,-30 L0,30" stroke="#fb923c" stroke-width="2" opacity="0.7" />
  </g>
  
  <!-- Simple Person Silhouettes - Reduced to minimal representation -->
  <g transform="translate(880, 180)">
    <!-- Just two simple person figures representing households -->
    <g transform="translate(-30, 0)">
      <circle cx="0" cy="0" r="15" fill="#3b82f6" opacity="0.7" />
      <rect x="-10" y="15" width="20" height="35" rx="5" fill="#3b82f6" opacity="0.7" />
    </g>
    
    <g transform="translate(30, 0)">
      <circle cx="0" cy="0" r="15" fill="#60a5fa" opacity="0.7" />
      <rect x="-10" y="15" width="20" height="35" rx="5" fill="#60a5fa" opacity="0.7" />
    </g>
  </g>
  
  <!-- Decorative elements -->
  <circle cx="200" cy="100" r="80" fill="#3b82f6" opacity="0.05" />
  <circle cx="1000" cy="300" r="120" fill="#f59e0b" opacity="0.05" />
</svg>
