<?xml version="1.0" encoding="UTF-8" standalone="no"?>
<svg width="1200" height="400" viewBox="0 0 1200 400" xmlns="http://www.w3.org/2000/svg">
  <defs>
    <linearGradient id="bg-gradient" x1="0%" y1="0%" x2="100%" y2="100%">
      <stop offset="0%" stop-color="#f8fafc" />
      <stop offset="100%" stop-color="#e2e8f0" />
    </linearGradient>
  </defs>
  
  <!-- Background -->
  <rect width="1200" height="400" fill="url(#bg-gradient)" />
  
  <!-- Diverse People Group - Simplified -->
  <g transform="translate(600, 200)">
    <!-- Person 1 -->
    <g transform="translate(-160, 0)">
      <circle cx="0" cy="0" r="20" fill="#f472b6" opacity="0.7" />
      <rect x="-10" y="20" width="20" height="40" rx="5" fill="#f472b6" opacity="0.7" />
    </g>
    
    <!-- Person 2 -->
    <g transform="translate(-80, 0)">
      <circle cx="0" cy="0" r="20" fill="#a855f7" opacity="0.7" />
      <rect x="-10" y="20" width="20" height="40" rx="5" fill="#a855f7" opacity="0.7" />
    </g>
    
    <!-- Person 3 -->
    <g transform="translate(0, 0)">
      <circle cx="0" cy="0" r="20" fill="#3b82f6" opacity="0.7" />
      <rect x="-10" y="20" width="20" height="40" rx="5" fill="#3b82f6" opacity="0.7" />
    </g>
    
    <!-- Person 4 -->
    <g transform="translate(80, 0)">
      <circle cx="0" cy="0" r="20" fill="#10b981" opacity="0.7" />
      <rect x="-10" y="20" width="20" height="40" rx="5" fill="#10b981" opacity="0.7" />
    </g>
    
    <!-- Person 5 -->
    <g transform="translate(160, 0)">
      <circle cx="0" cy="0" r="20" fill="#f59e0b" opacity="0.7" />
      <rect x="-10" y="20" width="20" height="40" rx="5" fill="#f59e0b" opacity="0.7" />
    </g>
  </g>
  
  <!-- Connecting arc representing unity in diversity -->
  <path d="M400,150 Q600,100 800,150" stroke="#64748b" stroke-width="2" fill="none" opacity="0.5" />
  
  <!-- Simplified cultural symbol suggestion -->
  <g transform="translate(400, 120)">
    <circle cx="0" cy="0" r="15" fill="#f59e0b" opacity="0.4" />
  </g>
  
  <g transform="translate(800, 120)">
    <circle cx="0" cy="0" r="15" fill="#10b981" opacity="0.4" />
  </g>
</svg>
