<?xml version="1.0" encoding="UTF-8" standalone="no"?>
<svg width="1200" height="400" viewBox="0 0 1200 400" xmlns="http://www.w3.org/2000/svg">
  <defs>
    <linearGradient id="bg-gradient" x1="0%" y1="0%" x2="100%" y2="100%">
      <stop offset="0%" stop-color="#f8fafc" />
      <stop offset="100%" stop-color="#e2e8f0" />
    </linearGradient>
  </defs>
  
  <!-- Background -->
  <rect width="1200" height="400" fill="url(#bg-gradient)" />
  
  <!-- Central Hub - Simplified -->
  <circle cx="600" cy="200" r="40" fill="#3b82f6" opacity="0.7" />
  
  <!-- Connected Cooperatives - Simplified -->
  <!-- Cooperative 1 -->
  <rect x="400" y="150" width="40" height="40" rx="5" fill="#10b981" opacity="0.7" />
  
  <!-- Cooperative 2 -->
  <rect x="760" y="150" width="40" height="40" rx="5" fill="#a855f7" opacity="0.7" />
  
  <!-- Cooperative 3 -->
  <rect x="480" y="280" width="40" height="40" rx="5" fill="#f43f5e" opacity="0.7" />
  
  <!-- Cooperative 4 -->
  <rect x="680" y="280" width="40" height="40" rx="5" fill="#f59e0b" opacity="0.7" />
  
  <!-- Cooperative 5 -->
  <rect x="580" y="100" width="40" height="40" rx="5" fill="#fb7185" opacity="0.7" />
  
  <!-- Connecting Lines - Simplified -->
  <line x1="600" y1="200" x2="420" y2="170" stroke="#64748b" stroke-width="1" stroke-dasharray="5,3" />
  <line x1="600" y1="200" x2="780" y2="170" stroke="#64748b" stroke-width="1" stroke-dasharray="5,3" />
  <line x1="600" y1="200" x2="500" y2="300" stroke="#64748b" stroke-width="1" stroke-dasharray="5,3" />
  <line x1="600" y1="200" x2="700" y2="300" stroke="#64748b" stroke-width="1" stroke-dasharray="5,3" />
  <line x1="600" y1="200" x2="600" y2="120" stroke="#64748b" stroke-width="1" stroke-dasharray="5,3" />
  
  <!-- Subtle decorative elements -->
  <circle cx="200" cy="100" r="80" fill="#3b82f6" opacity="0.05" />
  <circle cx="1000" cy="300" r="120" fill="#10b981" opacity="0.05" />
</svg>
