<?xml version="1.0" encoding="UTF-8" standalone="no"?>
<svg width="1200" height="400" viewBox="0 0 1200 400" xmlns="http://www.w3.org/2000/svg">
  <defs>
    <linearGradient id="bg-gradient" x1="0%" y1="0%" x2="100%" y2="100%">
      <stop offset="0%" stop-color="#f8fafc" />
      <stop offset="100%" stop-color="#e2e8f0" />
    </linearGradient>
  </defs>
  
  <!-- Background -->
  <rect width="1200" height="400" fill="url(#bg-gradient)" />
  
  <!-- Simple soil line -->
  <path d="M300,250 Q600,270 900,250" stroke="#92400e" stroke-width="2" fill="none" opacity="0.3" />
  
  <!-- Healthy Plant - Minimalistic -->
  <g transform="translate(400, 200)">
    <path d="M0,50 L0,0 M-20,10 C-5,-15 5,-15 20,10" stroke="#16a34a" stroke-width="3" fill="none" />
  </g>
  
  <!-- Diseased Plant - Minimalistic -->
  <g transform="translate(600, 200)">
    <!-- Simple stem and leaf outline -->
    <path d="M0,50 L0,0 M-20,10 C-5,-15 5,-15 20,10" stroke="#16a34a" stroke-width="3" fill="none" />
    <!-- Disease spots -->
    <circle cx="-10" cy="0" r="5" fill="#ef4444" opacity="0.7" />
    <circle cx="10" cy="-5" r="5" fill="#ef4444" opacity="0.7" />
  </g>
  
  <!-- Dead Plant - Minimalistic -->
  <g transform="translate(800, 200)">
    <path d="M0,50 L0,0 M-20,10 C-5,-15 5,-15 20,10" stroke="#92400e" stroke-width="3" fill="none" opacity="0.7" />
  </g>
  
  <!-- Disease vector - minimalistic bug -->
  <path d="M625,150 Q635,140 645,150" stroke="#a16207" stroke-width="2" fill="none" />
  <circle cx="635" cy="145" r="8" fill="#a16207" opacity="0.7" />
  
  <!-- Subtle decorative elements -->
  <circle cx="200" cy="100" r="80" fill="#16a34a" opacity="0.05" />
  <circle cx="1000" cy="300" r="120" fill="#ef4444" opacity="0.05" />
</svg>
