<svg width="1200" height="400" viewBox="0 0 1200 400" xmlns="http://www.w3.org/2000/svg">
  <defs>
    <linearGradient id="bg-gradient" x1="0%" y1="0%" x2="100%" y2="100%">
      <stop offset="0%" stop-color="#f8fafc" />
      <stop offset="100%" stop-color="#e2e8f0" />
    </linearGradient>
  </defs>
  
  <!-- Background -->
  <rect width="1200" height="400" fill="url(#bg-gradient)" />
  
  <!-- Timeline representing deceased population -->
  <g transform="translate(600, 200)">
    <line x1="-300" y1="0" x2="300" y2="0" stroke="#94a3b8" stroke-width="2" stroke-dasharray="6 2" />
    
    <!-- Simple markers on the timeline -->
    <line x1="-250" y1="-10" x2="-250" y2="10" stroke="#64748b" stroke-width="1.5" />
    <line x1="-150" y1="-10" x2="-150" y2="10" stroke="#64748b" stroke-width="1.5" />
    <line x1="-50" y1="-10" x2="-50" y2="10" stroke="#64748b" stroke-width="1.5" />
    <line x1="50" y1="-10" x2="50" y2="10" stroke="#64748b" stroke-width="1.5" />
    <line x1="150" y1="-10" x2="150" y2="10" stroke="#64748b" stroke-width="1.5" />
    <line x1="250" y1="-10" x2="250" y2="10" stroke="#64748b" stroke-width="1.5" />
    
    <!-- Simple trend line above the timeline -->
    <path d="M-300,-50 C-200,-80 -100,-20 0,-50 S150,-90 300,-40" 
          fill="none" stroke="#64748b" stroke-width="2.5" opacity="0.7" />
    
    <!-- Data points along the line -->
    <circle cx="-250" cy="-60" r="5" fill="#64748b" opacity="0.7" />
    <circle cx="-150" cy="-30" r="5" fill="#64748b" opacity="0.7" />
    <circle cx="-50" cy="-55" r="5" fill="#64748b" opacity="0.7" />
    <circle cx="50" cy="-70" r="5" fill="#64748b" opacity="0.7" />
    <circle cx="150" cy="-80" r="5" fill="#64748b" opacity="0.7" />
    <circle cx="250" cy="-45" r="5" fill="#64748b" opacity="0.7" />
  </g>
  
  <!-- Simplified people silhouettes -->
  <g transform="translate(400, 270)">
    <circle cx="0" cy="0" r="15" fill="#94a3b8" opacity="0.7" />
    <rect x="-10" y="15" width="20" height="30" rx="5" fill="#94a3b8" opacity="0.7" />
  </g>
  
  <g transform="translate(450, 270)">
    <circle cx="0" cy="0" r="15" fill="#94a3b8" opacity="0.7" />
    <rect x="-10" y="15" width="20" height="30" rx="5" fill="#94a3b8" opacity="0.7" />
  </g>
  
  <g transform="translate(750, 270)">
    <circle cx="0" cy="0" r="15" fill="#94a3b8" opacity="0.7" />
    <rect x="-10" y="15" width="20" height="30" rx="5" fill="#94a3b8" opacity="0.7" />
  </g>
  
  <g transform="translate(800, 270)">
    <circle cx="0" cy="0" r="15" fill="#94a3b8" opacity="0.7" />
    <rect x="-10" y="15" width="20" height="30" rx="5" fill="#94a3b8" opacity="0.7" />
  </g>
  
  <!-- Age group simple visualization -->
  <g transform="translate(600, 100)">
    <line x1="-100" y1="0" x2="100" y2="0" stroke="#64748b" stroke-width="1.5" />
    
    <!-- Represents young, mid-age, elderly -->
    <circle cx="-70" cy="0" r="10" fill="#d1d5db" opacity="0.7" />
    <circle cx="0" cy="0" r="20" fill="#9ca3af" opacity="0.7" />
    <circle cx="70" cy="0" r="15" fill="#6b7280" opacity="0.7" />
  </g>
  
  <!-- Subtle decorative elements -->
  <circle cx="200" cy="100" r="80" fill="#64748b" opacity="0.05" />
  <circle cx="1000" cy="300" r="120" fill="#94a3b8" opacity="0.05" />
</svg>
