<svg width="1200" height="400" viewBox="0 0 1200 400" xmlns="http://www.w3.org/2000/svg">
  <defs>
    <linearGradient id="bg-gradient" x1="0%" y1="0%" x2="100%" y2="100%">
      <stop offset="0%" stop-color="#f8fafc" />
      <stop offset="100%" stop-color="#e2e8f0" />
    </linearGradient>
  </defs>
  
  <!-- Background -->
  <rect width="1200" height="400" fill="url(#bg-gradient)" />
  
  <!-- Minimal people group representing demographics, centered on the image -->
  <g transform="translate(600, 200)">
    <!-- Person 1 (larger - represents adults) -->
    <g transform="translate(-200, 0)">
      <circle cx="0" cy="-25" r="25" fill="#3b82f6" opacity="0.7" />
      <rect x="-15" y="0" width="30" height="50" rx="5" fill="#3b82f6" opacity="0.7" />
    </g>
    
    <!-- Person 2 -->
    <g transform="translate(-100, 0)">
      <circle cx="0" cy="-25" r="25" fill="#60a5fa" opacity="0.7" />
      <rect x="-15" y="0" width="30" height="50" rx="5" fill="#60a5fa" opacity="0.7" />
    </g>
    
    <!-- Person 3 (smaller - represents child) -->
    <g transform="translate(0, 10)">
      <circle cx="0" cy="-20" r="20" fill="#93c5fd" opacity="0.7" />
      <rect x="-12" y="0" width="24" height="40" rx="5" fill="#93c5fd" opacity="0.7" />
    </g>
    
    <!-- Person 4 -->
    <g transform="translate(100, 0)">
      <circle cx="0" cy="-25" r="25" fill="#60a5fa" opacity="0.7" />
      <rect x="-15" y="0" width="30" height="50" rx="5" fill="#60a5fa" opacity="0.7" />
    </g>
    
    <!-- Person 5 (elderly) -->
    <g transform="translate(200, 0)">
      <circle cx="0" cy="-25" r="25" fill="#3b82f6" opacity="0.7" />
      <rect x="-15" y="0" width="30" height="50" rx="5" fill="#3b82f6" opacity="0.7" />
    </g>
  </g>
  
  <!-- Subtle decorative elements -->
  <circle cx="200" cy="100" r="80" fill="#3b82f6" opacity="0.05" />
  <circle cx="1000" cy="300" r="120" fill="#60a5fa" opacity="0.05" />
</svg>
