<svg width="1200" height="400" viewBox="0 0 1200 400" xmlns="http://www.w3.org/2000/svg">
  <defs>
    <linearGradient id="bg-gradient" x1="0%" y1="0%" x2="100%" y2="100%">
      <stop offset="0%" stop-color="#f8fafc" />
      <stop offset="100%" stop-color="#e2e8f0" />
    </linearGradient>
    
    <linearGradient id="water-gradient" x1="0%" y1="0%" x2="0%" y2="100%">
      <stop offset="0%" stop-color="#93c5fd" />
      <stop offset="100%" stop-color="#3b82f6" />
    </linearGradient>
  </defs>
  
  <!-- Background -->
  <rect width="1200" height="400" fill="url(#bg-gradient)" />
  
  <!-- Central water source representation -->
  <g transform="translate(600, 200)">
    <!-- Water tap -->
    <path d="M-20,-40 L-20,-60 L40,-60 L40,-40" fill="none" stroke="#64748b" stroke-width="4" opacity="0.8" />
    <path d="M10,-40 L10,0" fill="none" stroke="#64748b" stroke-width="4" opacity="0.8" />
    <path d="M-10,0 L30,0" fill="none" stroke="#64748b" stroke-width="4" opacity="0.8" />
    
    <!-- Water droplets -->
    <path d="M10,10 Q10,40 25,40 Q40,40 40,25 Q40,10 25,10 Q10,10 10,25 Z" fill="url(#water-gradient)" opacity="0.8" />
    <path d="M-15,30 Q-15,50 -5,50 Q5,50 5,40 Q5,30 -5,30 Q-15,30 -15,40 Z" fill="url(#water-gradient)" opacity="0.7" />
    
    <!-- Simple well/source circle -->
    <circle cx="-40" cy="40" r="40" fill="none" stroke="#3b82f6" stroke-width="3" opacity="0.6" />
    <circle cx="-40" cy="40" r="25" fill="url(#water-gradient)" opacity="0.4" />
  </g>
  
  <!-- Subtle decorative elements -->
  <circle cx="200" cy="100" r="80" fill="#3b82f6" opacity="0.05" />
  <circle cx="1000" cy="300" r="120" fill="#3b82f6" opacity="0.05" />
</svg>
