<?xml version="1.0" encoding="UTF-8" standalone="no"?>
<svg width="1200" height="400" viewBox="0 0 1200 400" xmlns="http://www.w3.org/2000/svg">
  <defs>
    <linearGradient id="bg-gradient" x1="0%" y1="0%" x2="100%" y2="100%">
      <stop offset="0%" stop-color="#f8fafc" />
      <stop offset="100%" stop-color="#e2e8f0" />
    </linearGradient>
  </defs>
  
  <!-- Background -->
  <rect width="1200" height="400" fill="url(#bg-gradient)" />
  
  <!-- Central growth chart - simple upward line -->
  <g transform="translate(600, 200)">
    <!-- Simple growth line representing economy -->
    <path d="M-200,50 L-150,30 L-100,40 L-50,0 L0,-30 L50,-50 L100,-60 L150,-40 L200,-70" 
          fill="none" stroke="#0f766e" stroke-width="3" opacity="0.8" />
    
    <!-- Highlight point on the chart -->
    <circle cx="50" cy="-50" r="8" fill="#14b8a6" opacity="0.8" />
    <circle cx="150" cy="-40" r="8" fill="#14b8a6" opacity="0.8" />
  </g>
  
  <!-- Currency symbol - rupee -->
  <g transform="translate(500, 200)">
    <circle cx="0" cy="0" r="50" fill="#0f766e" opacity="0.1" />
    <path d="M-15,-15 H15 M-15,0 H15 M-15,15 H10 M-8,-15 v30 M8,0 l-16,15" 
          stroke="#0f766e" stroke-width="3" fill="none" opacity="0.8" />
  </g>
  
  <!-- Simple coin stack representation -->
  <g transform="translate(700, 200)">
    <ellipse cx="0" cy="15" rx="30" ry="10" fill="#0f766e" opacity="0.3" />
    <ellipse cx="0" cy="5" rx="30" ry="10" fill="#0f766e" opacity="0.4" />
    <ellipse cx="0" cy="-5" rx="30" ry="10" fill="#0f766e" opacity="0.5" />
    <ellipse cx="0" cy="-15" rx="30" ry="10" fill="#0f766e" opacity="0.6" />
    <ellipse cx="0" cy="-25" rx="30" ry="10" fill="#0f766e" opacity="0.7" />
  </g>
  
  <!-- Subtle decorative elements -->
  <circle cx="200" cy="100" r="80" fill="#0d9488" opacity="0.05" />
  <circle cx="1000" cy="300" r="120" fill="#0f766e" opacity="0.05" />
</svg>
