<svg width="1200" height="400" viewBox="0 0 1200 400" xmlns="http://www.w3.org/2000/svg">
  <defs>
    <linearGradient id="bg-gradient" x1="0%" y1="0%" x2="100%" y2="100%">
      <stop offset="0%" stop-color="#f8fafc" />
      <stop offset="100%" stop-color="#e2e8f0" />
    </linearGradient>
    
    <linearGradient id="solar-gradient" x1="0%" y1="0%" x2="100%" y2="100%">
      <stop offset="0%" stop-color="#fde68a" />
      <stop offset="100%" stop-color="#fbbf24" />
    </linearGradient>
  </defs>
  
  <!-- Background -->
  <rect width="1200" height="400" fill="url(#bg-gradient)" />
  
  <!-- Central electricity source representation -->
  <g transform="translate(600, 200)">
    <!-- Main power grid/pole -->
    <rect x="-5" y="-100" width="10" height="200" fill="#64748b" opacity="0.8" />
    
    <!-- Crossbar -->
    <rect x="-50" y="-60" width="100" height="5" fill="#64748b" opacity="0.8" />
    
    <!-- Power lines -->
    <path d="M-50,-60 Q-70,-20 -100,20" stroke="#64748b" stroke-width="2" fill="none" />
    <path d="M-30,-60 Q-40,-30 -60,20" stroke="#64748b" stroke-width="2" fill="none" />
    <path d="M30,-60 Q40,-30 60,20" stroke="#64748b" stroke-width="2" fill="none" />
    <path d="M50,-60 Q70,-20 100,20" stroke="#64748b" stroke-width="2" fill="none" />
    
    <!-- Solar panel -->
    <rect x="-150" y="-40" width="80" height="60" fill="url(#solar-gradient)" opacity="0.8" />
    <line x1="-150" y1="-20" x2="-70" y2="-20" stroke="#64748b" stroke-width="1" />
    <line x1="-150" y1="0" x2="-70" y2="0" stroke="#64748b" stroke-width="1" />
    <line x1="-130" y1="-40" x2="-130" y2="20" stroke="#64748b" stroke-width="1" />
    <line x1="-110" y1="-40" x2="-110" y2="20" stroke="#64748b" stroke-width="1" />
    <line x1="-90" y1="-40" x2="-90" y2="20" stroke="#64748b" stroke-width="1" />
    
    <!-- Simple house -->
    <path d="M60,20 L60,60 L120,60 L120,20 L90,-10 Z" fill="#e2e8f0" stroke="#94a3b8" stroke-width="1" opacity="0.7" />
    
    <!-- Lightning bolt for electricity -->
    <path d="M0,-80 L-15,-50 L0,-50 L-10,-30 L5,-60 L-10,-60 Z" fill="#FFA000" opacity="0.8" />
  </g>
  
  <!-- Subtle decorative elements -->
  <circle cx="200" cy="100" r="80" fill="#1E88E5" opacity="0.05" />
  <circle cx="1000" cy="300" r="120" fill="#FFA000" opacity="0.05" />
</svg>
