<?xml version="1.0" encoding="UTF-8" standalone="no"?>
<svg width="1200" height="400" viewBox="0 0 1200 400" xmlns="http://www.w3.org/2000/svg">
  <defs>
    <linearGradient id="bg-gradient" x1="0%" y1="0%" x2="100%" y2="100%">
      <stop offset="0%" stop-color="#f8fafc" />
      <stop offset="100%" stop-color="#e2e8f0" />
    </linearGradient>
  </defs>
  
  <!-- Background -->
  <rect width="1200" height="400" fill="url(#bg-gradient)" />
  
  <!-- Central farming representation -->
  <g transform="translate(600, 200)">
    <!-- Farmer silhouette -->
    <circle cx="-80" cy="0" r="25" fill="#16a34a" opacity="0.7" />
    <rect x="-95" y="25" width="30" height="50" rx="5" fill="#16a34a" opacity="0.7" />
    
    <!-- Simple plant elements -->
    <g transform="translate(20, 0)">
      <path d="M0,50 L0,0 M-15,5 C-5,-15 5,-15 15,5" stroke="#16a34a" stroke-width="3" fill="none" />
    </g>
    
    <g transform="translate(100, -10)">
      <path d="M0,60 L0,0 M-20,10 C-10,-20 10,-20 20,10" stroke="#16a34a" stroke-width="3" fill="none" />
    </g>
    
    <g transform="translate(180, 0)">
      <path d="M0,50 L0,0 M-15,5 C-5,-15 5,-15 15,5" stroke="#16a34a" stroke-width="3" fill="none" />
    </g>
  </g>
  
  <!-- Ground/earth suggestion -->
  <path d="M400,270 Q600,240 800,270" stroke="#65a30d" stroke-width="2" fill="none" opacity="0.3" />
  
  <!-- Subtle sun element -->
  <g transform="translate(950, 120)">
    <circle cx="0" cy="0" r="40" fill="#fbbf24" opacity="0.5" />
    <path d="M0,-60 L0,-45 M42,-42 L32,-32 M60,0 L45,0 M42,42 L32,32 M0,60 L0,45 M-42,42 L-32,32 M-60,0 L-45,0 M-42,-42 L-32,-32" 
          stroke="#fbbf24" stroke-width="2" opacity="0.5" />
  </g>
  
  <!-- Subtle decorative elements -->
  <circle cx="200" cy="100" r="80" fill="#16a34a" opacity="0.05" />
  <circle cx="1000" cy="300" r="120" fill="#65a30d" opacity="0.05" />
</svg>
