<?xml version="1.0" encoding="UTF-8" standalone="no"?>
<svg width="1200" height="400" viewBox="0 0 1200 400" xmlns="http://www.w3.org/2000/svg">
  <defs>
    <linearGradient id="bg-gradient" x1="0%" y1="0%" x2="100%" y2="100%">
      <stop offset="0%" stop-color="#f8fafc" />
      <stop offset="100%" stop-color="#e2e8f0" />
    </linearGradient>
  </defs>
  
  <!-- Background -->
  <rect width="1200" height="400" fill="url(#bg-gradient)" />
  
  <!-- Central crop representation - simplified wheat/grain -->
  <g transform="translate(600, 200)">
    <!-- Crop Group 1 -->
    <g transform="translate(-150, 0)">
      <!-- Simplified wheat stalks -->
      <path d="M-15,50 L-15,0 M0,50 L0,-20 M15,50 L15,-10" 
            stroke="#16a34a" stroke-width="2" opacity="0.7" />
      
      <!-- Wheat heads -->
      <ellipse cx="-15" cy="0" rx="5" ry="10" fill="#f59e0b" opacity="0.7" />
      <ellipse cx="0" cy="-20" rx="5" ry="10" fill="#f59e0b" opacity="0.7" />
      <ellipse cx="15" cy="-10" rx="5" ry="10" fill="#f59e0b" opacity="0.7" />
    </g>
    
    <!-- Crop Group 2 -->
    <g transform="translate(0, 0)">
      <!-- Simplified wheat stalks -->
      <path d="M-15,50 L-15,-5 M0,50 L0,-25 M15,50 L15,-15" 
            stroke="#16a34a" stroke-width="2" opacity="0.7" />
      
      <!-- Wheat heads -->
      <ellipse cx="-15" cy="-5" rx="5" ry="10" fill="#f59e0b" opacity="0.7" />
      <ellipse cx="0" cy="-25" rx="5" ry="10" fill="#f59e0b" opacity="0.7" />
      <ellipse cx="15" cy="-15" rx="5" ry="10" fill="#f59e0b" opacity="0.7" />
    </g>
    
    <!-- Crop Group 3 -->
    <g transform="translate(150, 0)">
      <!-- Simplified wheat stalks -->
      <path d="M-15,50 L-15,-10 M0,50 L0,-15 M15,50 L15,-5" 
            stroke="#16a34a" stroke-width="2" opacity="0.7" />
      
      <!-- Wheat heads -->
      <ellipse cx="-15" cy="-10" rx="5" ry="10" fill="#f59e0b" opacity="0.7" />
      <ellipse cx="0" cy="-15" rx="5" ry="10" fill="#f59e0b" opacity="0.7" />
      <ellipse cx="15" cy="-5" rx="5" ry="10" fill="#f59e0b" opacity="0.7" />
    </g>
  </g>
  
  <!-- Simple stylized ground line -->
  <path d="M300,250 Q600,270 900,250" stroke="#92400e" stroke-width="2" opacity="0.5" fill="none" />
  
  <!-- Subtle decorative elements -->
  <circle cx="200" cy="100" r="80" fill="#16a34a" opacity="0.05" />
  <circle cx="1000" cy="300" r="120" fill="#f59e0b" opacity="0.05" />
</svg>
