<?xml version="1.0" encoding="UTF-8" standalone="no"?>
<svg width="1200" height="400" viewBox="0 0 1200 400" xmlns="http://www.w3.org/2000/svg">
  <defs>
    <linearGradient id="bg-gradient" x1="0%" y1="0%" x2="100%" y2="100%">
      <stop offset="0%" stop-color="#f8fafc" />
      <stop offset="100%" stop-color="#e2e8f0" />
    </linearGradient>
    
    <!-- Fruit gradient -->
    <radialGradient id="fruit-gradient" cx="50%" cy="50%" r="50%" fx="50%" fy="50%">
      <stop offset="0%" stop-color="#fb923c" />
      <stop offset="100%" stop-color="#ea580c" />
    </radialGradient>
    
    <!-- Leaf gradient -->
    <linearGradient id="leaf-gradient" x1="0%" y1="0%" x2="100%" y2="100%">
      <stop offset="0%" stop-color="#22c55e" />
      <stop offset="100%" stop-color="#16a34a" />
    </linearGradient>
  </defs>
  
  <!-- Background -->
  <rect width="1200" height="400" fill="url(#bg-gradient)" />
  
  <!-- Enhanced central fruit tree -->
  <g transform="translate(600, 220)">
    <!-- Tree trunk - improved shape -->
    <path d="M-25,130 C-25,100 -15,70 -15,40 C-15,0 15,0 15,40 C15,70 25,100 25,130 Z" 
          fill="#854d0e" opacity="0.9" />
    
    <!-- Improved branches with curve -->
    <path d="M0,-20 C-30,-25 -60,-15 -80,0" 
          stroke="#854d0e" stroke-width="6" opacity="0.8" stroke-linecap="round" />
    <path d="M0,-20 C-20,-35 -30,-60 -20,-80" 
          stroke="#854d0e" stroke-width="5" opacity="0.8" stroke-linecap="round" />
    <path d="M0,-20 C0,-40 0,-60 0,-90" 
          stroke="#854d0e" stroke-width="6" opacity="0.8" stroke-linecap="round" />
    <path d="M0,-20 C20,-35 30,-60 20,-80" 
          stroke="#854d0e" stroke-width="5" opacity="0.8" stroke-linecap="round" />
    <path d="M0,-20 C30,-25 60,-15 80,0" 
          stroke="#854d0e" stroke-width="6" opacity="0.8" stroke-linecap="round" />
    
    <!-- Enhanced leaves with gradients -->
    <ellipse cx="-75" cy="0" rx="28" ry="23" fill="url(#leaf-gradient)" opacity="0.9" />
    <ellipse cx="-20" cy="-75" rx="25" ry="18" fill="url(#leaf-gradient)" opacity="0.9" />
    <ellipse cx="0" cy="-90" rx="30" ry="25" fill="url(#leaf-gradient)" opacity="0.9" />
    <ellipse cx="20" cy="-75" rx="25" ry="18" fill="url(#leaf-gradient)" opacity="0.9" />
    <ellipse cx="75" cy="0" rx="28" ry="23" fill="url(#leaf-gradient)" opacity="0.9" />
    
    <!-- Additional smaller leaves for fullness -->
    <ellipse cx="-50" cy="-30" rx="20" ry="16" fill="url(#leaf-gradient)" opacity="0.8" />
    <ellipse cx="-40" cy="-55" rx="18" ry="14" fill="url(#leaf-gradient)" opacity="0.8" />
    <ellipse cx="40" cy="-30" rx="20" ry="16" fill="url(#leaf-gradient)" opacity="0.8" />
    <ellipse cx="40" cy="-55" rx="18" ry="14" fill="url(#leaf-gradient)" opacity="0.8" />
    
    <!-- Improved fruits with gradients and highlights -->
    <circle cx="-65" cy="5" r="15" fill="url(#fruit-gradient)" opacity="0.9" />
    <circle cx="-25" cy="-70" r="13" fill="url(#fruit-gradient)" opacity="0.9" />
    <circle cx="5" cy="-80" r="14" fill="url(#fruit-gradient)" opacity="0.9" />
    <circle cx="30" cy="-65" r="13" fill="url(#fruit-gradient)" opacity="0.9" />
    <circle cx="65" cy="5" r="15" fill="url(#fruit-gradient)" opacity="0.9" />
    <circle cx="-45" cy="-25" r="12" fill="url(#fruit-gradient)" opacity="0.9" />
    <circle cx="45" cy="-25" r="12" fill="url(#fruit-gradient)" opacity="0.9" />
    
    <!-- Subtle highlights on fruits -->
    <circle cx="-70" cy="0" r="4" fill="#ffffff" opacity="0.3" />
    <circle cx="-30" cy="-75" r="3" fill="#ffffff" opacity="0.3" />
    <circle cx="0" cy="-85" r="4" fill="#ffffff" opacity="0.3" />
    <circle cx="25" cy="-70" r="3" fill="#ffffff" opacity="0.3" />
    <circle cx="60" cy="0" r="4" fill="#ffffff" opacity="0.3" />
  </g>
  
  <!-- Ground shadow -->
  <ellipse cx="600" cy="350" rx="150" ry="15" fill="#94a3b8" opacity="0.2" />
  
  <!-- Subtle decorative elements -->
  <circle cx="400" cy="120" r="80" fill="#22c55e" opacity="0.05" />
  <circle cx="800" cy="150" r="100" fill="#f97316" opacity="0.05" />
</svg>
