<svg width="1200" height="400" viewBox="0 0 1200 400" xmlns="http://www.w3.org/2000/svg">
  <defs>
    <linearGradient id="bg-gradient" x1="0%" y1="0%" x2="100%" y2="100%">
      <stop offset="0%" stop-color="#f8fafc" />
      <stop offset="100%" stop-color="#e2e8f0" />
    </linearGradient>
  </defs>
  
  <!-- Background -->
  <rect width="1200" height="400" fill="url(#bg-gradient)" />
  
  <!-- Central home ownership representation -->
  <g transform="translate(600, 200)">
    <!-- Simple house with ownership symbol - no doors/windows -->
    <path d="M-100,50 L-100,-20 L0,-80 L100,-20 L100,50 Z" fill="#bfdbfe" opacity="0.7" />
    <rect x="-100" y="50" width="200" height="30" fill="#3b82f6" opacity="0.7" />
    
    <!-- Person silhouette suggesting ownership -->
    <g transform="translate(-150, 10)">
      <circle cx="0" cy="-25" r="25" fill="#3b82f6" opacity="0.7" />
      <rect x="-15" y="0" width="30" height="50" rx="5" fill="#3b82f6" opacity="0.7" />
    </g>
    
    <!-- Simple key icon representing ownership -->
    <g transform="translate(-150, -50)">
      <circle cx="0" cy="0" r="15" fill="none" stroke="#3b82f6" stroke-width="3" opacity="0.8" />
      <rect x="15" y="-3" width="30" height="6" fill="#3b82f6" opacity="0.8" />
      <rect x="35" y="-10" width="6" height="14" fill="#3b82f6" opacity="0.8" />
      <rect x="45" y="-10" width="6" height="14" fill="#3b82f6" opacity="0.8" />
    </g>
  </g>
  
  <!-- Simple representation of property lines -->
  <path d="M300,300 Q600,320 900,300" stroke="#3b82f6" stroke-width="2" opacity="0.3" fill="none" />
  
  <!-- Subtle decorative elements -->
  <circle cx="200" cy="100" r="80" fill="#3b82f6" opacity="0.05" />
  <circle cx="1000" cy="300" r="120" fill="#3b82f6" opacity="0.05" />
</svg>
