<svg width="1200" height="400" viewBox="0 0 1200 400" xmlns="http://www.w3.org/2000/svg">
  <defs>
    <linearGradient id="bg-gradient" x1="0%" y1="0%" x2="100%" y2="100%">
      <stop offset="0%" stop-color="#f8fafc" />
      <stop offset="100%" stop-color="#e2e8f0" />
    </linearGradient>
  </defs>
  
  <!-- Background -->
  <rect width="1200" height="400" fill="url(#bg-gradient)" />
  
  <!-- Simple crop representations on either side -->
  <g transform="translate(400, 130)">
    <!-- Wheat/rice crop on left -->
    <line x1="0" y1="0" x2="0" y2="30" stroke="#16a34a" stroke-width="2" opacity="0.8" />
    <line x1="20" y1="0" x2="20" y2="30" stroke="#16a34a" stroke-width="2" opacity="0.8" />
    <line x1="40" y1="0" x2="40" y2="30" stroke="#16a34a" stroke-width="2" opacity="0.8" />
    
    <!-- Plant heads -->
    <ellipse cx="0" cy="0" rx="5" ry="10" fill="#15803d" opacity="0.7" />
    <ellipse cx="20" cy="0" rx="5" ry="10" fill="#15803d" opacity="0.7" />
    <ellipse cx="40" cy="0" rx="5" ry="10" fill="#15803d" opacity="0.7" />
  </g>
  
  <g transform="translate(800, 130)">
    <!-- Wheat/rice crop on right -->
    <line x1="-40" y1="0" x2="-40" y2="30" stroke="#16a34a" stroke-width="2" opacity="0.8" />
    <line x1="-20" y1="0" x2="-20" y2="30" stroke="#16a34a" stroke-width="2" opacity="0.8" />
    <line x1="0" y1="0" x2="0" y2="30" stroke="#16a34a" stroke-width="2" opacity="0.8" />
    
    <!-- Plant heads -->
    <ellipse cx="-40" cy="0" rx="5" ry="10" fill="#15803d" opacity="0.7" />
    <ellipse cx="-20" cy="0" rx="5" ry="10" fill="#15803d" opacity="0.7" />
    <ellipse cx="0" cy="0" rx="5" ry="10" fill="#15803d" opacity="0.7" />
  </g>
  
  <!-- Central single wavy water line -->
  <path d="M300,200 Q350,180 400,200 Q450,220 500,200 Q550,180 600,200 Q650,220 700,200 Q750,180 800,200 Q850,220 900,200" 
        stroke="#3b82f6" stroke-width="5" fill="none" opacity="0.8" />
  
  <!-- Subtle decorative elements -->
  <circle cx="200" cy="100" r="80" fill="#3b82f6" opacity="0.05" />
  <circle cx="1000" cy="300" r="120" fill="#16a34a" opacity="0.05" />
</svg>
