<?xml version="1.0" encoding="UTF-8" standalone="no"?>
<svg width="1200" height="400" viewBox="0 0 1200 400" xmlns="http://www.w3.org/2000/svg">
  <defs>
    <linearGradient id="bg-gradient" x1="0%" y1="0%" x2="100%" y2="100%">
      <stop offset="0%" stop-color="#f8fafc" />
      <stop offset="100%" stop-color="#e2e8f0" />
    </linearGradient>
  </defs>
  
  <!-- Background -->
  <rect width="1200" height="400" fill="url(#bg-gradient)" />
  
  <!-- Central land representation -->
  <g transform="translate(600, 200)">
    <!-- Land plot with subtle border -->
    <polygon points="-200,-60 -100,-80 100,-60 200,-40 200,60 100,80 -100,60 -200,40" 
             fill="#4ade80" opacity="0.6" stroke="#16a34a" stroke-width="2" />
    
    <!-- Property divider lines -->
    <line x1="-100" y1="-80" x2="-100" y2="60" stroke="#16a34a" stroke-width="1" opacity="0.7" />
    <line x1="0" y1="-70" x2="0" y2="70" stroke="#16a34a" stroke-width="1" opacity="0.7" />
    <line x1="100" y1="-60" x2="100" y2="80" stroke="#16a34a" stroke-width="1" opacity="0.7" />
    
    <!-- Simple house symbol representing ownership -->
    <g transform="translate(-150, 0)">
      <rect x="-25" y="-10" width="50" height="40" fill="#15803d" opacity="0.7" />
      <path d="M-30,-10 L0,-40 L30,-10" fill="#15803d" opacity="0.7" />
    </g>
    
    <!-- Simple document symbol representing deed/certificate -->
    <g transform="translate(150, 0)">
      <rect x="-20" y="-30" width="40" height="60" fill="#15803d" opacity="0.7" />
      <line x1="-10" y1="-15" x2="10" y2="-15" stroke="#f8fafc" stroke-width="2" />
      <line x1="-10" y1="0" x2="10" y2="0" stroke="#f8fafc" stroke-width="2" />
      <line x1="-10" y1="15" x2="10" y2="15" stroke="#f8fafc" stroke-width="2" />
    </g>
  </g>
  
  <!-- Simple ground line -->
  <path d="M300,300 Q600,320 900,300" stroke="#16a34a" stroke-width="2" opacity="0.3" fill="none" />
  
  <!-- Subtle decorative elements -->
  <circle cx="200" cy="100" r="80" fill="#16a34a" opacity="0.05" />
  <circle cx="1000" cy="300" r="120" fill="#15803d" opacity="0.05" />
</svg>
