<?xml version="1.0" encoding="UTF-8" standalone="no"?>
<svg width="1200" height="400" viewBox="0 0 1200 400" xmlns="http://www.w3.org/2000/svg">
  <defs>
    <linearGradient id="bg-gradient" x1="0%" y1="0%" x2="100%" y2="100%">
      <stop offset="0%" stop-color="#f8fafc" />
      <stop offset="100%" stop-color="#e2e8f0" />
    </linearGradient>
  </defs>
  
  <!-- Background -->
  <rect width="1200" height="400" fill="url(#bg-gradient)" />
  
  <!-- Central speech bubble with emanating connections -->
  <g transform="translate(600, 200)">
    <!-- Main central speech bubble -->
    <path d="M-40,-60 L40,-60 Q70,-60 70,-30 L70,30 Q70,60 40,60 L0,60 L-15,85 L-30,60 L-40,60 Q-70,60 -70,30 L-70,-30 Q-70,-60 -40,-60 Z" 
          fill="#8b5cf6" opacity="0.7" />
          
    <!-- Smaller speech bubbles representing different languages -->
    <path d="M-180,-110 Q-160,-110 -150,-100 L-150,-60 Q-150,-50 -160,-50 L-170,-50 L-180,-40 L-190,-50 L-200,-50 Q-210,-50 -210,-60 L-210,-100 Q-210,-110 -200,-110 Z" 
          fill="#a78bfa" opacity="0.6" />
          
    <path d="M-220,40 Q-200,40 -190,50 L-190,90 Q-190,100 -200,100 L-210,100 L-220,110 L-230,100 L-240,100 Q-250,100 -250,90 L-250,50 Q-250,40 -240,40 Z" 
          fill="#a78bfa" opacity="0.6" />
          
    <path d="M180,-110 Q200,-110 210,-100 L210,-60 Q210,-50 200,-50 L190,-50 L180,-40 L170,-50 L160,-50 Q150,-50 150,-60 L150,-100 Q150,-110 160,-110 Z" 
          fill="#a78bfa" opacity="0.6" />
          
    <path d="M220,40 Q240,40 250,50 L250,90 Q250,100 240,100 L230,100 L220,110 L210,100 L200,100 Q190,100 190,90 L190,50 Q190,40 200,40 Z" 
          fill="#a78bfa" opacity="0.6" />
  </g>
  
  <!-- Subtle decorative elements -->
  <circle cx="300" cy="150" r="100" fill="#8b5cf6" opacity="0.05" />
  <circle cx="900" cy="250" r="120" fill="#8b5cf6" opacity="0.05" />
</svg>
