<?xml version="1.0" encoding="UTF-8" standalone="no"?>
<svg width="1200" height="400" viewBox="0 0 1200 400" xmlns="http://www.w3.org/2000/svg">
  <defs>
    <linearGradient id="bg-gradient" x1="0%" y1="0%" x2="100%" y2="100%">
      <stop offset="0%" stop-color="#f8fafc" />
      <stop offset="100%" stop-color="#e2e8f0" />
    </linearGradient>
    
    <!-- Book page gradient -->
    <linearGradient id="page-gradient" x1="0%" y1="0%" x2="0%" y2="100%">
      <stop offset="0%" stop-color="#ffffff" />
      <stop offset="100%" stop-color="#f1f5f9" />
    </linearGradient>
  </defs>
  
  <!-- Background -->
  <rect width="1200" height="400" fill="url(#bg-gradient)" />
  
  <!-- Central open book representation -->
  <g transform="translate(600, 200)">
    <!-- Left book page -->
    <path d="M-150,80 L-150,-80 C-100,-90 -50,-80 0,-80 L0,80 C-50,70 -100,75 -150,80 Z" 
          fill="url(#page-gradient)" stroke="#94a3b8" stroke-width="1" opacity="0.9" />
          
    <!-- Right book page -->
    <path d="M0,80 L0,-80 C50,-90 100,-80 150,-80 L150,80 C100,70 50,75 0,80 Z" 
          fill="url(#page-gradient)" stroke="#94a3b8" stroke-width="1" opacity="0.9" />
    
    <!-- Book spine shadow -->
    <path d="M0,-80 L0,80" stroke="#64748b" stroke-width="2" opacity="0.5" />
    
    <!-- Text lines on left page -->
    <line x1="-130" y1="-50" x2="-20" y2="-50" stroke="#4285F4" stroke-width="3" opacity="0.7" />
    <line x1="-130" y1="-30" x2="-40" y2="-30" stroke="#4285F4" stroke-width="3" opacity="0.7" />
    <line x1="-130" y1="-10" x2="-60" y2="-10" stroke="#4285F4" stroke-width="3" opacity="0.7" />
    <line x1="-130" y1="10" x2="-30" y2="10" stroke="#4285F4" stroke-width="3" opacity="0.7" />
    <line x1="-130" y1="30" x2="-50" y2="30" stroke="#4285F4" stroke-width="3" opacity="0.7" />
    <line x1="-130" y1="50" x2="-70" y2="50" stroke="#4285F4" stroke-width="3" opacity="0.7" />
    
    <!-- Text lines on right page -->
    <line x1="20" y1="-50" x2="130" y2="-50" stroke="#FBBC05" stroke-width="3" opacity="0.7" />
    <line x1="40" y1="-30" x2="130" y2="-30" stroke="#EA4335" stroke-width="3" opacity="0.7" />
    <line x1="60" y1="-10" x2="130" y2="-10" stroke="#FBBC05" stroke-width="3" opacity="0.7" />
    <line x1="30" y1="10" x2="130" y2="10" stroke="#EA4335" stroke-width="3" opacity="0.7" />
    <line x1="50" y1="30" x2="130" y2="30" stroke="#FBBC05" stroke-width="3" opacity="0.7" />
    <line x1="70" y1="50" x2="130" y2="50" stroke="#EA4335" stroke-width="3" opacity="0.7" />
  </g>
  
  <!-- Subtle decorative elements -->
  <circle cx="200" cy="100" r="80" fill="#4285F4" opacity="0.05" />
  <circle cx="1000" cy="300" r="120" fill="#EA4335" opacity="0.05" />
</svg>
