<svg width="1200" height="400" viewBox="0 0 1200 400" xmlns="http://www.w3.org/2000/svg">
  <defs>
    <linearGradient id="bg-gradient" x1="0%" y1="0%" x2="100%" y2="100%">
      <stop offset="0%" stop-color="#f8fafc" />
      <stop offset="100%" stop-color="#e2e8f0" />
    </linearGradient>
  </defs>
  
  <!-- Background -->
  <rect width="1200" height="400" fill="url(#bg-gradient)" />
  
  <!-- Central occupation diversity representation -->
  <g transform="translate(600, 200)">
    <!-- Agriculture representation -->
    <g transform="translate(-150, 0)">
      <circle cx="0" cy="0" r="40" fill="#0f766e" opacity="0.7" />
      <path d="M-15,-15 L15,-15 L15,0 L-15,0 Z" fill="none" stroke="white" stroke-width="2"/>
      <path d="M-10,0 L-10,15 M10,0 L10,15 M0,-15 L0,-25" stroke="white" stroke-width="2" fill="none"/>
    </g>
    
    <!-- Business representation -->
    <g transform="translate(0, 0)">
      <circle cx="0" cy="0" r="40" fill="#2563eb" opacity="0.7" />
      <rect x="-12" y="-15" width="24" height="30" rx="2" fill="none" stroke="white" stroke-width="2"/>
      <rect x="-8" y="-8" width="16" height="4" rx="1" stroke="white" stroke-width="1.5" fill="none"/>
      <rect x="-8" y="0" width="16" height="4" rx="1" stroke="white" stroke-width="1.5" fill="none"/>
    </g>
    
    <!-- Labor representation -->
    <g transform="translate(150, 0)">
      <circle cx="0" cy="0" r="40" fill="#4f46e5" opacity="0.7" />
      <circle cx="-5" cy="-5" r="6" fill="none" stroke="white" stroke-width="2"/>
      <path d="M-5,1 L-5,12 L5,12 L5,-3 L-1,-3" fill="none" stroke="white" stroke-width="2"/>
    </g>
  </g>
  
  <!-- Subtle decorative elements -->
  <circle cx="200" cy="100" r="80" fill="#0f766e" opacity="0.05" />
  <circle cx="1000" cy="300" r="120" fill="#2563eb" opacity="0.05" />
</svg>
