<?xml version="1.0" encoding="UTF-8" standalone="no"?>
<svg width="1200" height="400" viewBox="0 0 1200 400" xmlns="http://www.w3.org/2000/svg">
  <defs>
    <linearGradient id="bg-gradient" x1="0%" y1="0%" x2="100%" y2="100%">
      <stop offset="0%" stop-color="#f8fafc" />
      <stop offset="100%" stop-color="#e2e8f0" />
    </linearGradient>
  </defs>
  
  <!-- Background -->
  <rect width="1200" height="400" fill="url(#bg-gradient)" />
  
  <!-- Central infrastructure elements -->
  <g transform="translate(600, 200)">
    <!-- Simple road -->
    <rect x="-300" y="-10" width="600" height="20" fill="#94a3b8" opacity="0.7" />
    <path d="M-250,0 L-150,0 M-50,0 L50,0 M150,0 L250,0" stroke="#f8fafc" stroke-width="3" stroke-dasharray="20,20" />
    
    <!-- Simple buildings -->
    <g transform="translate(-150, 0)">
      <rect x="-40" y="-100" width="80" height="100" fill="#475569" opacity="0.7" />
      <rect x="-30" y="-60" width="15" height="25" fill="#f8fafc" opacity="0.7" />
      <rect x="15" y="-60" width="15" height="25" fill="#f8fafc" opacity="0.7" />
      <rect x="-30" y="-20" width="15" height="20" fill="#f8fafc" opacity="0.7" />
      <rect x="15" y="-20" width="15" height="20" fill="#f8fafc" opacity="0.7" />
    </g>
    
    <g transform="translate(150, 0)">
      <rect x="-30" y="-80" width="60" height="80" fill="#475569" opacity="0.7" />
      <rect x="-20" y="-70" width="40" height="60" fill="#94a3b8" opacity="0.5" />
    </g>
    
    <!-- Utility pole -->
    <g transform="translate(0, 0)">
      <rect x="-5" y="-90" width="10" height="90" fill="#64748b" opacity="0.8" />
      <rect x="-30" y="-60" width="60" height="5" fill="#64748b" opacity="0.8" />
      <path d="M-30,-60 Q-70,-40 -100,-20" stroke="#64748b" stroke-width="1" fill="none" />
      <path d="M30,-60 Q70,-40 100,-20" stroke="#64748b" stroke-width="1" fill="none" />
    </g>
  </g>
  
  <!-- Subtle decorative elements -->
  <circle cx="200" cy="100" r="80" fill="#64748b" opacity="0.05" />
  <circle cx="1000" cy="300" r="120" fill="#94a3b8" opacity="0.05" />
</svg>
