<svg width="1200" height="400" viewBox="0 0 1200 400" xmlns="http://www.w3.org/2000/svg">
  <defs>
    <linearGradient id="bg-gradient" x1="0%" y1="0%" x2="100%" y2="100%">
      <stop offset="0%" stop-color="#f8fafc" />
      <stop offset="100%" stop-color="#e2e8f0" />
    </linearGradient>
  </defs>
  
  <!-- Background -->
  <rect width="1200" height="400" fill="url(#bg-gradient)" />
  
  <!-- Simple bus representation -->
  <g transform="translate(600, 200)">
    <!-- Bus body -->
    <rect x="-80" y="-30" width="160" height="60" rx="10" fill="#4285F4" opacity="0.7" />
    <!-- Windows -->
    <rect x="-70" y="-20" width="15" height="15" rx="2" fill="#f8fafc" opacity="0.8" />
    <rect x="-45" y="-20" width="15" height="15" rx="2" fill="#f8fafc" opacity="0.8" />
    <rect x="-20" y="-20" width="15" height="15" rx="2" fill="#f8fafc" opacity="0.8" />
    <rect x="5" y="-20" width="15" height="15" rx="2" fill="#f8fafc" opacity="0.8" />
    <rect x="30" y="-20" width="15" height="15" rx="2" fill="#f8fafc" opacity="0.8" />
    <rect x="55" y="-20" width="15" height="15" rx="2" fill="#f8fafc" opacity="0.8" />
    <!-- Wheels -->
    <circle cx="-50" cy="30" r="10" fill="#64748b" opacity="0.8" />
    <circle cx="50" cy="30" r="10" fill="#64748b" opacity="0.8" />
    
    <!-- Simple bus stop sign -->
    <rect x="100" y="-40" width="5" height="40" fill="#64748b" opacity="0.7" />
    <rect x="85" y="-40" width="35" height="20" rx="2" fill="#4285F4" opacity="0.7" />
    
    <!-- Distance indicators -->
    <circle cx="-150" cy="0" r="10" fill="#f97316" opacity="0.6" />
    <path d="M-150,0 L-80,0" stroke="#94a3b8" stroke-width="1" stroke-dasharray="4 2" />
    
    <circle cx="-250" cy="0" r="10" fill="#eab308" opacity="0.6" />
    <path d="M-250,0 L-150,0" stroke="#94a3b8" stroke-width="1" stroke-dasharray="4 2" />
  </g>
  
  <!-- Road line -->
  <line x1="300" y1="230" x2="900" y2="230" stroke="#94a3b8" stroke-width="2" stroke-dasharray="20 10" />
  
  <!-- Subtle decorative elements -->
  <circle cx="200" cy="100" r="80" fill="#4285F4" opacity="0.05" />
  <circle cx="1000" cy="300" r="120" fill="#94a3b8" opacity="0.05" />
</svg>
