<?xml version="1.0" encoding="UTF-8" standalone="no"?>
<svg width="1200" height="400" viewBox="0 0 1200 400" xmlns="http://www.w3.org/2000/svg">
  <defs>
    <linearGradient id="bg-gradient" x1="0%" y1="0%" x2="100%" y2="100%">
      <stop offset="0%" stop-color="#f8fafc" />
      <stop offset="100%" stop-color="#e2e8f0" />
    </linearGradient>
  </defs>
  
  <!-- Background -->
  <rect width="1200" height="400" fill="url(#bg-gradient)" />
  
  <!-- Central minimal representation of religious diversity -->
  <g transform="translate(600, 200)">
    <!-- Circle representing unity/diversity -->
    <circle cx="0" cy="0" r="80" fill="none" stroke="#8b5cf6" stroke-width="3" opacity="0.7" />
    
    <!-- Abstract religious symbol representations -->
    <!-- Center star symbol (shared by many religions) -->
    <g transform="translate(0, 0)">
      <path d="M0,-50 L15,-15 L50,-10 L25,15 L30,50 L0,30 L-30,50 L-25,15 L-50,-10 L-15,-15 Z" 
            fill="#8b5cf6" opacity="0.5" />
    </g>
    
    <!-- Simple symbols arranged in a circle -->
    <g transform="translate(0, -100)">
      <!-- Abstract crescent symbol -->
      <path d="M0,0 C-10,15 10,15 0,0 Z" stroke="#8b5cf6" stroke-width="2" fill="none" opacity="0.7" />
    </g>
    
    <g transform="translate(95, -31)">
      <!-- Abstract wheel symbol -->
      <circle cx="0" cy="0" r="10" fill="none" stroke="#8b5cf6" stroke-width="2" opacity="0.7" />
      <line x1="0" y1="-10" x2="0" y2="10" stroke="#8b5cf6" stroke-width="2" opacity="0.7" />
      <line x1="-10" y1="0" x2="10" y2="0" stroke="#8b5cf6" stroke-width="2" opacity="0.7" />
    </g>
    
    <g transform="translate(59, 81)">
      <!-- Abstract om symbol -->
      <path d="M0,-5 C5,-10 10,-5 5,0 C0,5 -5,0 0,-5 Z" stroke="#8b5cf6" stroke-width="2" fill="none" opacity="0.7" />
    </g>
    
    <g transform="translate(-59, 81)">
      <!-- Abstract cross symbol -->
      <path d="M0,-10 L0,10 M-7,0 L7,0" stroke="#8b5cf6" stroke-width="2" opacity="0.7" />
    </g>
    
    <g transform="translate(-95, -31)">
      <!-- Abstract star symbol -->
      <path d="M0,-7 L2,7 L-7,-2 L7,-2 L-2,7 Z" stroke="#8b5cf6" stroke-width="2" fill="none" opacity="0.7" />
    </g>
  </g>
  
  <!-- Simple connecting lines -->
  <path d="M600,120 L600,200" stroke="#a78bfa" stroke-width="1" opacity="0.5" />
  <path d="M695,169 L600,200" stroke="#a78bfa" stroke-width="1" opacity="0.5" />
  <path d="M659,281 L600,200" stroke="#a78bfa" stroke-width="1" opacity="0.5" />
  <path d="M541,281 L600,200" stroke="#a78bfa" stroke-width="1" opacity="0.5" />
  <path d="M505,169 L600,200" stroke="#a78bfa" stroke-width="1" opacity="0.5" />
  
  <!-- Subtle decorative elements -->
  <circle cx="300" cy="150" r="100" fill="#8b5cf6" opacity="0.05" />
  <circle cx="900" cy="250" r="120" fill="#a78bfa" opacity="0.05" />
</svg>
