<?xml version="1.0" encoding="UTF-8" standalone="no"?>
<svg width="1200" height="400" viewBox="0 0 1200 400" xmlns="http://www.w3.org/2000/svg">
  <defs>
    <linearGradient id="bg-gradient" x1="0%" y1="0%" x2="100%" y2="100%">
      <stop offset="0%" stop-color="#f8fafc" />
      <stop offset="100%" stop-color="#e2e8f0" />
    </linearGradient>
  </defs>
  
  <!-- Background -->
  <rect width="1200" height="400" fill="url(#bg-gradient)" />
  
  <!-- Central mother and child silhouette -->
  <g transform="translate(600, 200)">
    <!-- Mother figure -->
    <circle cx="0" cy="-40" r="30" fill="#ec4899" opacity="0.7" />
    <path d="M-30,0 Q0,50 30,0" fill="#ec4899" opacity="0.7" />
    
    <!-- Child/baby representation -->
    <circle cx="5" cy="-15" r="15" fill="#fbcfe8" opacity="0.8" />
  </g>
  
  <!-- Protective arc representing care -->
  <path d="M450,150 Q600,50 750,150" 
        stroke="#d946ef" stroke-width="3" fill="none" opacity="0.6" />
  
  <!-- Health center/facility representation -->
  <g transform="translate(400, 200)">
    <!-- Simple house/facility shape -->
    <rect x="-40" y="0" width="80" height="60" fill="#a855f7" opacity="0.5" />
    <path d="M-50,0 L0,-30 L50,0" fill="#a855f7" opacity="0.5" />
    <path d="M-10,60 L-10,40 L10,40 L10,60" fill="#f8fafc" opacity="0.9" />
    <!-- Medical cross symbol -->
    <g transform="translate(0, -10)">
      <rect x="-5" y="-12" width="10" height="24" rx="2" fill="#f8fafc" opacity="0.9" />
      <rect x="-12" y="-5" width="24" height="10" rx="2" fill="#f8fafc" opacity="0.9" />
    </g>
  </g>
  
  <!-- Midwife/health worker representation -->
  <g transform="translate(800, 200)">
    <circle cx="0" cy="-30" r="25" fill="#8b5cf6" opacity="0.7" />
    <rect x="-20" y="0" width="40" height="60" rx="5" fill="#8b5cf6" opacity="0.7" />
    <!-- Simple stethoscope suggestion -->
    <path d="M-5,-15 Q-20,0 -15,15" stroke="#f8fafc" stroke-width="2" fill="none" opacity="0.9" />
    <circle cx="-15" cy="15" r="5" fill="#f8fafc" opacity="0.9" />
  </g>
  
  <!-- Subtle decorative elements -->
  <circle cx="200" cy="100" r="80" fill="#ec4899" opacity="0.05" />
  <circle cx="1000" cy="300" r="120" fill="#8b5cf6" opacity="0.05" />
  
  <!-- Small stars representing hope and well-being -->
  <g transform="translate(700, 100)">
    <path d="M0,-10 L2,-2 L10,0 L2,2 L0,10 L-2,2 L-10,0 L-2,-2 Z" fill="#f472b6" opacity="0.7" />
  </g>
  <g transform="translate(500, 120)">
    <path d="M0,-15 L3,-3 L15,0 L3,3 L0,15 L-3,3 L-15,0 L-3,-3 Z" fill="#f472b6" opacity="0.7" />
  </g>
  <g transform="translate(900, 150)">
    <path d="M0,-8 L2,-2 L8,0 L2,2 L0,8 L-2,2 L-8,0 L-2,-2 Z" fill="#f472b6" opacity="0.7" />
  </g>
</svg>
