<?xml version="1.0" encoding="UTF-8" standalone="no"?>
<svg width="1200" height="400" viewBox="0 0 1200 400" xmlns="http://www.w3.org/2000/svg">
  <defs>
    <linearGradient id="bg-gradient" x1="0%" y1="0%" x2="100%" y2="100%">
      <stop offset="0%" stop-color="#f8fafc" />
      <stop offset="100%" stop-color="#e2e8f0" />
    </linearGradient>
  </defs>
  
  <!-- Background -->
  <rect width="1200" height="400" fill="url(#bg-gradient)" />
  
  <!-- Simple school building icon -->
  <g transform="translate(600, 200)">
    <!-- School building with rounded corners -->
    <rect x="-100" y="-60" width="200" height="120" rx="10" fill="#4285F4" opacity="0.7" />
    
    <!-- Simple roof -->
    <path d="M-120,-60 L0,-110 L120,-60" fill="#4285F4" opacity="0.8" stroke="none" />
    
    <!-- Simple door -->
    <rect x="-20" y="20" width="40" height="40" rx="5" fill="#f8fafc" opacity="0.9" />
    
    <!-- Simple windows -->
    <rect x="-70" y="-30" width="30" height="30" rx="5" fill="#FBBC05" opacity="0.8" />
    <rect x="40" y="-30" width="30" height="30" rx="5" fill="#FBBC05" opacity="0.8" />
  </g>
  
  <!-- Elegant dropout path arrows -->
  <g>
    <!-- Employment path - blue -->
    <path d="M700,140 C750,100 800,70 850,50" 
          stroke="#4285F4" stroke-width="4" fill="none" opacity="0.7" 
          stroke-linecap="round" />
          
    <!-- Education path - yellow -->
    <path d="M700,200 C750,200 800,200 850,200" 
          stroke="#FBBC05" stroke-width="4" fill="none" opacity="0.7" 
          stroke-linecap="round" />
          
    <!-- Social path - green -->
    <path d="M700,260 C750,300 800,330 850,350" 
          stroke="#34A853" stroke-width="4" fill="none" opacity="0.7" 
          stroke-linecap="round" />
  </g>
  
  <!-- Simple student figure -->
  <g transform="translate(500, 200)">
    <circle cx="0" cy="-15" r="15" fill="#EA4335" opacity="0.8" />
    <path d="M-10,0 L-10,30 L10,30 L10,0 Z" fill="#EA4335" opacity="0.8" />
  </g>
  
  <!-- Minimal cause icons -->
  <g>
    <!-- Work icon -->
    <circle cx="870" cy="50" r="20" fill="#4285F4" opacity="0.8" />
    <rect x="860" y="40" width="20" height="20" rx="2" fill="#ffffff" opacity="0.9" />
    
    <!-- Study icon -->
    <circle cx="870" cy="200" r="20" fill="#FBBC05" opacity="0.8" />
    <path d="M858,200 L870,190 L882,200 L870,210 Z" fill="#ffffff" opacity="0.9" />
    
    <!-- Social icon -->
    <circle cx="870" cy="350" r="20" fill="#34A853" opacity="0.8" />
    <circle cx="862" cy="345" r="5" fill="#ffffff" opacity="0.9" />
    <circle cx="878" cy="345" r="5" fill="#ffffff" opacity="0.9" />
    <path d="M862,355 Q870,360 878,355" stroke="#ffffff" stroke-width="2" opacity="0.9" fill="none" />
  </g>
  
  <!-- Subtle decorative elements -->
  <circle cx="250" cy="150" r="100" fill="#4285F4" opacity="0.05" />
  <circle cx="950" cy="300" r="120" fill="#EA4335" opacity="0.05" />
</svg>
