<?xml version="1.0" encoding="UTF-8" standalone="no"?>
<svg width="1200" height="400" viewBox="0 0 1200 400"
    xmlns="http://www.w3.org/2000/svg">
    <defs>
        <linearGradient id="bg-gradient" x1="0%" y1="0%" x2="100%" y2="100%">
            <stop offset="0%" stop-color="#f8fafc" />
            <stop offset="100%" stop-color="#e2e8f0" />
        </linearGradient>
        
        <linearGradient id="carrot-gradient" x1="0%" y1="0%" x2="0%" y2="100%">
            <stop offset="0%" stop-color="#fb923c" />
            <stop offset="100%" stop-color="#ea580c" />
        </linearGradient>
        
        <linearGradient id="leaf-gradient" x1="0%" y1="0%" x2="100%" y2="100%">
            <stop offset="0%" stop-color="#22c55e" />
            <stop offset="100%" stop-color="#16a34a" />
        </linearGradient>
        
        <linearGradient id="disease-gradient" x1="0%" y1="0%" x2="100%" y2="100%">
            <stop offset="0%" stop-color="#475569" />
            <stop offset="100%" stop-color="#1e293b" />
        </linearGradient>
        
        <pattern id="disease-pattern" x="0" y="0" width="20" height="20" patternUnits="userSpaceOnUse">
            <circle cx="10" cy="10" r="3" fill="#7f1d1d" opacity="0.8" />
            <circle cx="5" cy="5" r="2" fill="#b91c1c" opacity="0.7" />
            <circle cx="15" cy="15" r="2.5" fill="#991b1b" opacity="0.7" />
        </pattern>
    </defs>

    <!-- Background -->
    <rect width="1200" height="400" fill="url(#bg-gradient)" />
    
    <!-- Central carrot representation with disease -->
    <g transform="translate(600, 220)">
        <!-- Carrot body with partially diseased region -->
        <path d="M-20,-80 Q0,-100 20,-80 L50,80 Q0,120 -50,80 Z" 
              fill="url(#carrot-gradient)" stroke="#ea580c" stroke-width="1" opacity="0.9" />
              
        <!-- Disease spot/bite on the carrot -->
        <path d="M-20,10 C-10,-10 30,-10 20,20 C10,50 -10,40 -20,10 Z" 
              fill="url(#disease-pattern)" opacity="0.9" stroke="#7f1d1d" stroke-width="1" />
              
        <!-- Smaller disease spots -->
        <circle cx="15" cy="40" r="12" fill="url(#disease-pattern)" opacity="0.8" />
        <circle cx="-30" cy="-20" r="8" fill="url(#disease-pattern)" opacity="0.8" />
        
        <!-- Carrot top/leaves (slightly wilted) -->
        <path d="M0,-80 C-30,-130 -45,-110 -40,-90" 
              fill="none" stroke="url(#leaf-gradient)" stroke-width="4" stroke-linecap="round" opacity="0.8" />
        <path d="M0,-80 C0,-120 10,-110 10,-90" 
              fill="none" stroke="url(#leaf-gradient)" stroke-width="4" stroke-linecap="round" opacity="0.8" />
        <path d="M0,-80 C30,-130 40,-120 30,-90" 
              fill="none" stroke="url(#leaf-gradient)" stroke-width="4" stroke-linecap="round" opacity="0.8" />
              
        <!-- Wilted leaf -->
        <path d="M-10,-90 C-20,-110 0,-130 0,-110" 
              fill="none" stroke="#a3e635" stroke-width="3" stroke-linecap="round" opacity="0.6" />
              
        <!-- Carrot detail lines -->
        <path d="M-10,-60 C0,-40 0,-20 -10,0" 
              fill="none" stroke="#c2410c" stroke-width="1" opacity="0.5" />
        <path d="M10,-60 C0,-30 5,0 15,30" 
              fill="none" stroke="#c2410c" stroke-width="1" opacity="0.5" />
    </g>
    
    <!-- Simple indication of microbes around the carrot -->
    <g transform="translate(540, 180)" opacity="0.6">
        <circle cx="0" cy="0" r="5" fill="#dc2626" />
        <circle cx="10" cy="-10" r="3" fill="#dc2626" />
        <circle cx="-10" cy="-5" r="4" fill="#dc2626" />
    </g>
    
    <g transform="translate(690, 230)" opacity="0.6">
        <circle cx="0" cy="0" r="5" fill="#dc2626" />
        <circle cx="-8" cy="-8" r="3" fill="#dc2626" />
        <circle cx="10" cy="-5" r="4" fill="#dc2626" />
    </g>
    
    <!-- Ground representation line removed -->
    
    <!-- Subtle decorative elements -->
    <circle cx="300" cy="150" r="100" fill="#dc2626" opacity="0.03" />
    <circle cx="900" cy="250" r="120" fill="#f97316" opacity="0.05" />
</svg>
