<?xml version="1.0" encoding="UTF-8" standalone="no"?>
<svg width="1200" height="400" viewBox="0 0 1200 400"
    xmlns="http://www.w3.org/2000/svg">
    <defs>
        <linearGradient id="bg-gradient" x1="0%" y1="0%" x2="100%" y2="100%">
            <stop offset="0%" stop-color="#f8fafc" />
            <stop offset="100%" stop-color="#e2e8f0" />
        </linearGradient>
    </defs>

    <!-- Background -->
    <rect width="1200" height="400" fill="url(#bg-gradient)" />
    
    <!-- People silhouettes on the left -->
    <g transform="translate(300, 200)">
        <!-- Person 1 (large) -->
        <circle cx="0" cy="-30" r="30" fill="#3b82f6" opacity="0.7" />
        <rect x="-20" y="0" width="40" height="60" rx="5" fill="#3b82f6" opacity="0.7" />
        
        <!-- Person 2 (medium) -->
        <g transform="translate(60, 10)">
            <circle cx="0" cy="-25" r="25" fill="#60a5fa" opacity="0.7" />
            <rect x="-15" y="0" width="30" height="50" rx="5" fill="#60a5fa" opacity="0.7" />
        </g>
        
        <!-- Person 3 (small) -->
        <g transform="translate(110, 20)">
            <circle cx="0" cy="-20" r="20" fill="#93c5fd" opacity="0.7" />
            <rect x="-12" y="0" width="24" height="40" rx="5" fill="#93c5fd" opacity="0.7" />
        </g>
    </g>
    
    <!-- Government building at center with straighter features -->
    <g transform="translate(600, 200)">
        <!-- Building base - square, not rounded -->
        <rect x="-80" y="-30" width="160" height="100" fill="#1e40af" opacity="0.6" />
        
        <!-- Rounded roof instead of triangular -->
        <path d="M-80,-30 Q0,-100 80,-30" fill="#1e40af" opacity="0.6" />
        
        <!-- Straight pillars without rounded corners -->
        <rect x="-60" y="-30" width="15" height="100" fill="#f8fafc" opacity="0.7" />
        <rect x="-20" y="-30" width="15" height="100" fill="#f8fafc" opacity="0.7" />
        <rect x="20" y="-30" width="15" height="100" fill="#f8fafc" opacity="0.7" />
        <rect x="60" y="-30" width="15" height="100" fill="#f8fafc" opacity="0.7" />
        
        <!-- Steps -->
        <rect x="-50" y="70" width="100" height="10" fill="#f8fafc" opacity="0.5" />
    </g>
    
    <!-- Subtle decorative elements -->
    <circle cx="200" cy="100" r="80" fill="#3b82f6" opacity="0.05" />
    <circle cx="1000" cy="300" r="120" fill="#60a5fa" opacity="0.05" />
</svg>
