<?xml version="1.0" encoding="UTF-8" standalone="no"?>
<svg width="1200" height="400" viewBox="0 0 1200 400" xmlns="http://www.w3.org/2000/svg">
  <defs>
    <!-- Simple background gradient -->
    <linearGradient id="bg-gradient" x1="0%" y1="0%" x2="100%" y2="100%">
      <stop offset="0%" stop-color="#f8fafc" />
      <stop offset="100%" stop-color="#e2e8f0" />
    </linearGradient>
    
    <!-- Water drop gradient -->
    <radialGradient id="water-drop-gradient" cx="50%" cy="50%" r="50%" fx="35%" fy="35%">
      <stop offset="0%" stop-color="#60a5fa" />
      <stop offset="100%" stop-color="#3b82f6" />
    </radialGradient>
    
    <!-- Clean wave gradient -->
    <linearGradient id="wave-gradient" x1="0%" y1="0%" x2="0%" y2="100%">
      <stop offset="0%" stop-color="#93c5fd" stop-opacity="0.6" />
      <stop offset="100%" stop-color="#3b82f6" stop-opacity="0.2" />
    </linearGradient>
  </defs>
  
  <!-- Simple background -->
  <rect width="1200" height="400" fill="url(#bg-gradient)" />
  
  <!-- Single static wave at bottom -->
  <path d="M0,320 Q300,280 600,320 Q900,360 1200,320 L1200,400 L0,400 Z" 
        fill="url(#wave-gradient)" opacity="0.8" />
  
  <!-- Small group of clean water droplets in the middle -->
  <!-- Large centered water droplet -->
  <g transform="translate(600, 180)">
    <path d="M0,0 Q-30,30 0,60 Q30,30 0,0 Z" fill="url(#water-drop-gradient)" opacity="0.9" />
    <path d="M-8,15 Q-5,12 -2,15 Q-5,18 -8,15 Z" fill="white" opacity="0.5" />
  </g>
  
  <!-- Medium left droplet -->
  <g transform="translate(520, 170) scale(0.7)">
    <path d="M0,0 Q-30,30 0,60 Q30,30 0,0 Z" fill="url(#water-drop-gradient)" opacity="0.8" />
    <path d="M-8,15 Q-5,12 -2,15 Q-5,18 -8,15 Z" fill="white" opacity="0.5" />
  </g>
  
  <!-- Medium right droplet -->
  <g transform="translate(680, 170) scale(0.7)">
    <path d="M0,0 Q-30,30 0,60 Q30,30 0,0 Z" fill="url(#water-drop-gradient)" opacity="0.8" />
    <path d="M-8,15 Q-5,12 -2,15 Q-5,18 -8,15 Z" fill="white" opacity="0.5" />
  </g>
  
  <!-- Small left droplet -->
  <g transform="translate(480, 200) scale(0.4)">
    <path d="M0,0 Q-30,30 0,60 Q30,30 0,0 Z" fill="url(#water-drop-gradient)" opacity="0.7" />
    <path d="M-8,15 Q-5,12 -2,15 Q-5,18 -8,15 Z" fill="white" opacity="0.5" />
  </g>
  
  <!-- Small right droplet -->
  <g transform="translate(720, 200) scale(0.4)">
    <path d="M0,0 Q-30,30 0,60 Q30,30 0,0 Z" fill="url(#water-drop-gradient)" opacity="0.7" />
    <path d="M-8,15 Q-5,12 -2,15 Q-5,18 -8,15 Z" fill="white" opacity="0.5" />
  </g>

  <!-- Subtle circle backgrounds -->
  <circle cx="500" cy="180" r="120" fill="#3b82f6" opacity="0.03" />
  <circle cx="700" cy="190" r="140" fill="#93c5fd" opacity="0.03" />
</svg>
