<svg width="1200" height="1200" xmlns="http://www.w3.org/2000/svg">
  <defs>
    <pattern id="hexGrid" width="60" height="104" patternUnits="userSpaceOnUse">
      <path fill="none" stroke="#0b1f42" stroke-width="0.5" d="M30 0L60 17.3v34.6L30 69.3L0 52v-34.6z" opacity="0.4"/>
      <path fill="none" stroke="#123772" stroke-width="0.5" d="M0 52L30 69.3L60 52" opacity="0.3"/>
      <path fill="none" stroke="#1a4894" stroke-width="0.5" d="M30 69.3v34.7" opacity="0.2"/>
      <path fill="none" stroke="#1a4894" stroke-width="0.5" d="M60 52v34.6L30 104L0 86.6v-34.6" opacity="0.4"/>
    </pattern>
    
    <linearGradient id="bgGradient" x1="0%" y1="0%" x2="100%" y2="100%">
      <stop offset="0%" stop-color="#123772" stop-opacity="0.05"/>
      <stop offset="50%" stop-color="#1a4894" stop-opacity="0.03"/>
      <stop offset="100%" stop-color="#0b1f42" stop-opacity="0.05"/>
    </linearGradient>
    
    <radialGradient id="centerGlow" cx="50%" cy="30%" r="70%" fx="50%" fy="30%">
      <stop offset="0%" stop-color="#1a4894" stop-opacity="0.08"/>
      <stop offset="100%" stop-color="#0b1f42" stop-opacity="0"/>
    </radialGradient>
    
    <filter id="glow" x="-50%" y="-50%" width="200%" height="200%">
      <feGaussianBlur stdDeviation="15" result="blur"/>
      <feComposite in="SourceGraphic" in2="blur" operator="over"/>
    </filter>
  </defs>
  
  <!-- Background rectangle -->
  <rect x="0" y="0" width="100%" height="100%" fill="url(#bgGradient)"/>
  
  <!-- Radial glow -->
  <rect x="0" y="0" width="100%" height="100%" fill="url(#centerGlow)"/>
  
  <!-- Hexagon grid pattern -->
  <rect x="0" y="0" width="100%" height="100%" fill="url(#hexGrid)"/>
  
  <!-- Decorative elements -->
  <path d="M0,400 Q300,350 600,400 T1200,400" stroke="#1a4894" stroke-width="1" fill="none" opacity="0.1"/>
  <path d="M0,500 Q300,450 600,500 T1200,500" stroke="#0b1f42" stroke-width="1" fill="none" opacity="0.1"/>
  <path d="M0,600 Q300,550 600,600 T1200,600" stroke="#123772" stroke-width="1" fill="none" opacity="0.08"/>
  
  <!-- Large subtle accent circle -->
  <circle cx="200" cy="200" r="400" fill="#1a4894" opacity="0.03"/>
  <circle cx="1000" cy="1000" r="300" fill="#0b1f42" opacity="0.02"/>
  
  <!-- Decorative geometric shapes -->
  <polygon points="100,100 150,50 200,100 150,150" fill="#123772" opacity="0.04"/>
  <polygon points="1000,200 1050,150 1100,200 1050,250" fill="#1a4894" opacity="0.03"/>
  <polygon points="200,900 250,850 300,900 250,950" fill="#0b1f42" opacity="0.04"/>
  <polygon points="900,800 950,750 1000,800 950,850" fill="#123772" opacity="0.03"/>
</svg>
